<?xml version="1.0" encoding="UTF-8" standalone="no"?>
<!-- Created with Inkscape (http://www.inkscape.org/) -->

<svg
   width="920.2868"
   height="920.2868"
   viewBox="0 0 243.49255 243.49255"
   version="1.1"
   id="svg5"
   inkscape:version="1.1.2 (0a00cf5339, 2022-02-04)"
   sodipodi:docname="venn-the-software.svg"
   xmlns:inkscape="http://www.inkscape.org/namespaces/inkscape"
   xmlns:sodipodi="http://sodipodi.sourceforge.net/DTD/sodipodi-0.dtd"
   xmlns="http://www.w3.org/2000/svg"
   xmlns:svg="http://www.w3.org/2000/svg">
  <sodipodi:namedview
     id="namedview7"
     pagecolor="#ffffff"
     bordercolor="#666666"
     borderopacity="1.0"
     inkscape:pageshadow="2"
     inkscape:pageopacity="0.0"
     inkscape:pagecheckerboard="0"
     inkscape:document-units="mm"
     showgrid="false"
     fit-margin-top="0"
     fit-margin-left="0"
     fit-margin-right="0"
     fit-margin-bottom="0"
     units="px"
     inkscape:zoom="0.57549102"
     inkscape:cx="308.43227"
     inkscape:cy="529.9822"
     inkscape:window-width="3380"
     inkscape:window-height="1325"
     inkscape:window-x="30"
     inkscape:window-y="45"
     inkscape:window-maximized="1"
     inkscape:current-layer="layer1" />
  <defs
     id="defs2">
    <rect
       x="2046.9909"
       y="210.32269"
       width="1092.8579"
       height="715.03987"
       id="rect38995" />
  </defs>
  <g
     inkscape:label="Layer 1"
     inkscape:groupmode="layer"
     id="layer1"
     transform="translate(-19.398803,-8.0477439)">
    <circle
       style="fill:#000000;stroke:#b3b3b3;stroke-width:2.64583;stroke-linecap:round"
       id="path11652"
       cx="141.14508"
       cy="129.79402"
       r="120.42336" />
    <g
       aria-label="&quot;the software&quot;"
       id="text4106-3"
       style="font-size:13.3606px;line-height:1.25;stroke-width:0.334014">
      <path
         d="m 95.619231,55.313285 v 3.620671 h -1.109035 v -3.620671 z m 2.46597,0 v 3.620671 h -1.109034 v -3.620671 z"
         style="fill:#f9f9f9"
         id="path39678" />
      <path
         d="m 101.81677,55.67209 v 2.074547 h 2.4725 v 0.932893 h -2.4725 v 3.966428 q 0,0.893752 0.24138,1.148177 0.2479,0.254425 0.99813,0.254425 h 1.23299 v 1.004655 h -1.23299 q -1.38955,0 -1.91797,-0.515375 -0.52843,-0.521898 -0.52843,-1.891882 V 58.67953 h -0.880699 v -0.932893 h 0.880699 V 55.67209 Z"
         style="fill:#f9f9f9"
         id="path39680" />
      <path
         d="m 111.9416,60.643173 v 4.410042 h -1.20036 v -4.3709 q 0,-1.037273 -0.40447,-1.552647 -0.40447,-0.515375 -1.21342,-0.515375 -0.97203,0 -1.53307,0.619754 -0.56104,0.619755 -0.56104,1.689646 v 4.129522 h -1.20689 V 54.90229 h 1.20689 v 3.979476 q 0.43056,-0.658897 1.01117,-0.985084 0.58714,-0.326186 1.35042,-0.326186 1.25908,0 1.90493,0.782848 0.64584,0.776324 0.64584,2.289829 z"
         style="fill:#f9f9f9"
         id="path39682" />
      <path
         d="m 120.58555,61.099834 v 0.587136 h -5.51908 q 0.0783,1.239509 0.74371,1.891882 0.67194,0.645849 1.86578,0.645849 0.69152,0 1.33737,-0.169617 0.65237,-0.169617 1.2917,-0.508851 v 1.135129 q -0.64585,0.273997 -1.32432,0.417519 -0.67847,0.143522 -1.37651,0.143522 -1.74836,0 -2.77258,-1.017702 -1.01771,-1.017702 -1.01771,-2.753014 0,-1.794026 0.96552,-2.844347 0.97203,-1.056844 2.61601,-1.056844 1.47437,0 2.32897,0.952465 0.86114,0.945941 0.86114,2.576873 z m -1.20037,-0.352281 q -0.0131,-0.985084 -0.55452,-1.572219 -0.53494,-0.587136 -1.42217,-0.587136 -1.00465,0 -1.61136,0.567564 -0.60018,0.567565 -0.69152,1.598314 z"
         style="fill:#f9f9f9"
         id="path39684" />
      <path
         d="m 131.46061,57.96192 v 1.135129 q -0.50885,-0.260949 -1.05685,-0.391424 -0.54799,-0.130475 -1.13513,-0.130475 -0.89375,0 -1.34389,0.273997 -0.44361,0.273997 -0.44361,0.82199 0,0.417519 0.31966,0.658897 0.31967,0.234854 1.28518,0.450137 l 0.41099,0.09133 q 1.27865,0.273996 1.8136,0.776324 0.54147,0.495803 0.54147,1.389554 0,1.017702 -0.80894,1.611362 -0.80242,0.593659 -2.21155,0.593659 -0.58713,0 -1.22646,-0.117427 -0.6328,-0.110903 -1.33736,-0.339234 v -1.239509 q 0.66542,0.345758 1.31127,0.521899 0.64585,0.169617 1.27865,0.169617 0.84808,0 1.30474,-0.287044 0.45667,-0.293568 0.45667,-0.821991 0,-0.489279 -0.33271,-0.750229 -0.32619,-0.260949 -1.44175,-0.502327 l -0.41752,-0.09786 q -1.11556,-0.234854 -1.61136,-0.71761 -0.4958,-0.48928 -0.4958,-1.337365 0,-1.030749 0.73065,-1.59179 0.73066,-0.561041 2.07455,-0.561041 0.66542,0 1.25256,0.09786 0.58713,0.09786 1.08294,0.293568 z"
         style="fill:#f9f9f9"
         id="path39686" />
      <path
         d="m 136.59478,58.588198 q -0.96551,0 -1.52655,0.756753 -0.56104,0.750229 -0.56104,2.061499 0,1.311269 0.55451,2.068022 0.56105,0.750229 1.53308,0.750229 0.95899,0 1.52003,-0.756753 0.56104,-0.756752 0.56104,-2.061498 0,-1.298223 -0.56104,-2.054976 -0.56104,-0.763276 -1.52003,-0.763276 z m 0,-1.017702 q 1.5657,0 2.45945,1.017702 0.89375,1.017702 0.89375,2.818252 0,1.794026 -0.89375,2.818251 -0.89375,1.017702 -2.45945,1.017702 -1.57222,0 -2.46597,-1.017702 -0.88723,-1.024225 -0.88723,-2.818251 0,-1.80055 0.88723,-2.818252 0.89375,-1.017702 2.46597,-1.017702 z"
         style="fill:#f9f9f9"
         id="path39688" />
      <path
         d="m 145.63667,54.90229 v 0.998131 h -1.14817 q -0.64585,0 -0.90028,0.260949 -0.2479,0.260949 -0.2479,0.939417 v 0.64585 h 1.97669 v 0.932893 h -1.97669 v 6.373685 h -1.20689 V 58.67953 h -1.14818 v -0.932893 h 1.14818 v -0.508851 q 0,-1.219938 0.56756,-1.774455 0.56757,-0.561041 1.80055,-0.561041 z"
         style="fill:#f9f9f9"
         id="path39690" />
      <path
         d="m 147.59379,55.67209 v 2.074547 h 2.4725 v 0.932893 h -2.4725 v 3.966428 q 0,0.893752 0.24138,1.148177 0.2479,0.254425 0.99813,0.254425 h 1.23299 v 1.004655 h -1.23299 q -1.38955,0 -1.91798,-0.515375 -0.52842,-0.521898 -0.52842,-1.891882 V 58.67953 h -0.8807 v -0.932893 h 0.8807 V 55.67209 Z"
         style="fill:#f9f9f9"
         id="path39692" />
      <path
         d="m 150.94699,57.746637 h 1.20037 l 1.50045,5.70174 1.49394,-5.70174 h 1.41565 l 1.50046,5.70174 1.49393,-5.70174 h 1.20037 l -1.91146,7.306578 h -1.41565 l -1.57222,-5.988785 -1.57874,5.988785 h -1.41565 z"
         style="fill:#f9f9f9"
         id="path39694" />
      <path
         d="m 165.89286,61.380355 q -1.45479,0 -2.01583,0.33271 -0.56104,0.33271 -0.56104,1.135129 0,0.639326 0.41752,1.017702 0.42404,0.371853 1.14817,0.371853 0.99813,0 1.59832,-0.704563 0.6067,-0.711087 0.6067,-1.885358 v -0.267473 z m 2.39421,-0.495804 v 4.168664 h -1.20037 v -1.109034 q -0.41099,0.66542 -1.02422,0.985083 -0.61323,0.313139 -1.50046,0.313139 -1.12208,0 -1.7875,-0.626278 -0.6589,-0.632802 -0.6589,-1.689646 0,-1.232985 0.82199,-1.859263 0.82851,-0.626279 2.46597,-0.626279 h 1.68312 V 60.32351 q 0,-0.828514 -0.54799,-1.278651 -0.54147,-0.456661 -1.52655,-0.456661 -0.62628,0 -1.21994,0.150046 -0.59366,0.150046 -1.14165,0.450137 v -1.109034 q 0.65889,-0.254426 1.27865,-0.378376 0.61975,-0.130475 1.20689,-0.130475 1.58526,0 2.36811,0.82199 0.78285,0.82199 0.78285,2.492065 z"
         style="fill:#f9f9f9"
         id="path39696" />
      <path
         d="m 174.99346,58.868718 q -0.20223,-0.117427 -0.44361,-0.169617 -0.23486,-0.05871 -0.5219,-0.05871 -1.0177,0 -1.5657,0.66542 -0.54147,0.658897 -0.54147,1.898406 v 3.849001 h -1.20689 v -7.306578 h 1.20689 v 1.135129 q 0.37838,-0.665421 0.98509,-0.985084 0.60671,-0.326186 1.47436,-0.326186 0.12395,0 0.274,0.01957 0.15004,0.01305 0.33271,0.04567 z"
         style="fill:#f9f9f9"
         id="path39698" />
      <path
         d="m 182.2087,61.099834 v 0.587136 h -5.51907 q 0.0783,1.239509 0.7437,1.891882 0.67195,0.645849 1.86579,0.645849 0.69152,0 1.33737,-0.169617 0.65237,-0.169617 1.29169,-0.508851 v 1.135129 q -0.64585,0.273997 -1.32431,0.417519 -0.67847,0.143522 -1.37651,0.143522 -1.74836,0 -2.77259,-1.017702 -1.0177,-1.017702 -1.0177,-2.753014 0,-1.794026 0.96551,-2.844347 0.97204,-1.056844 2.61602,-1.056844 1.47436,0 2.32897,0.952465 0.86113,0.945941 0.86113,2.576873 z m -1.20036,-0.352281 q -0.013,-0.985084 -0.55452,-1.572219 -0.53495,-0.587136 -1.42217,-0.587136 -1.00466,0 -1.61136,0.567564 -0.60019,0.567565 -0.69152,1.598314 z"
         style="fill:#f9f9f9"
         id="path39700" />
      <path
         d="m 185.314,55.313285 v 3.620671 h -1.10903 v -3.620671 z m 2.46597,0 v 3.620671 h -1.10903 v -3.620671 z"
         style="fill:#f9f9f9"
         id="path39702" />
    </g>
    <circle
       style="fill:none;stroke:#b3b3b3;stroke-width:2.64583;stroke-linecap:round"
       id="path846"
       cx="80.579849"
       cy="141.82228"
       r="51.007732" />
    <g
       aria-label="source files"
       id="text4106"
       style="font-size:10.5833px;line-height:1.25;stroke-width:0.264583">
      <path
         d="m 55.168044,140.15055 v 0.89917 q -0.403075,-0.20671 -0.837155,-0.31006 -0.434081,-0.10335 -0.899167,-0.10335 -0.707965,0 -1.064532,0.21704 -0.351398,0.21704 -0.351398,0.65112 0,0.33073 0.253213,0.52193 0.253214,0.18603 1.018023,0.35657 l 0.32556,0.0723 q 1.012855,0.21704 1.436601,0.61495 0.428913,0.39274 0.428913,1.1007 0,0.80615 -0.640786,1.27641 -0.635618,0.47025 -1.751825,0.47025 -0.465087,0 -0.971514,-0.093 -0.50126,-0.0879 -1.059364,-0.26872 v -0.98185 q 0.527098,0.27388 1.038693,0.41341 0.511595,0.13436 1.012855,0.13436 0.671792,0 1.033525,-0.22738 0.361734,-0.23254 0.361734,-0.65112 0,-0.38757 -0.263549,-0.59428 -0.258381,-0.2067 -1.142045,-0.3979 l -0.330728,-0.0775 q -0.883665,-0.18603 -1.276404,-0.56844 -0.39274,-0.38757 -0.39274,-1.05936 0,-0.81648 0.578774,-1.2609 0.578775,-0.44442 1.643306,-0.44442 0.527098,0 0.992184,0.0775 0.465086,0.0775 0.857826,0.23254 z"
         style="fill:#f9f9f9"
         id="path39620" />
      <path
         d="m 59.234966,140.64664 q -0.764808,0 -1.209224,0.59945 -0.444416,0.59427 -0.444416,1.63297 0,1.03869 0.439248,1.63814 0.444416,0.59427 1.214392,0.59427 0.759642,0 1.204057,-0.59944 0.444416,-0.59945 0.444416,-1.63297 0,-1.02836 -0.444416,-1.6278 -0.444415,-0.60462 -1.204057,-0.60462 z m 0,-0.80615 q 1.240231,0 1.948196,0.80615 0.707965,0.80615 0.707965,2.23242 0,1.4211 -0.707965,2.23241 -0.707965,0.80615 -1.948196,0.80615 -1.245398,0 -1.953362,-0.80615 -0.702798,-0.81131 -0.702798,-2.23241 0,-1.42627 0.702798,-2.23242 0.707964,-0.80615 1.953362,-0.80615 z"
         style="fill:#f9f9f9"
         id="path39622" />
      <path
         d="m 63.369067,143.48367 v -3.50365 h 0.950844 v 3.46748 q 0,0.82165 0.320392,1.23506 0.320393,0.40824 0.961179,0.40824 0.769976,0 1.214392,-0.49092 0.449584,-0.49093 0.449584,-1.33842 v -3.28144 h 0.950843 v 5.78774 h -0.950843 v -0.88883 q -0.346231,0.5271 -0.80615,0.78548 -0.454751,0.25321 -1.059363,0.25321 -0.997352,0 -1.514115,-0.62011 -0.516763,-0.62012 -0.516763,-1.81384 z m 2.392611,-3.64318 z"
         style="fill:#f9f9f9"
         id="path39624" />
      <path
         d="m 73.528622,140.86885 q -0.160196,-0.093 -0.351398,-0.13436 -0.186035,-0.0465 -0.41341,-0.0465 -0.80615,0 -1.240231,0.5271 -0.428913,0.52193 -0.428913,1.50378 v 3.0489 h -0.956011 v -5.78774 h 0.956011 v 0.89917 q 0.299723,-0.5271 0.780312,-0.78032 0.480589,-0.25838 1.167884,-0.25838 0.09818,0 0.21704,0.0155 0.118855,0.0103 0.263549,0.0362 z"
         style="fill:#f9f9f9"
         id="path39626" />
      <path
         d="m 78.458537,140.20223 v 0.88883 q -0.403075,-0.22221 -0.811318,-0.33073 -0.403074,-0.11369 -0.816485,-0.11369 -0.925005,0 -1.4366,0.58911 -0.511595,0.58394 -0.511595,1.64331 0,1.05936 0.511595,1.64847 0.511595,0.58394 1.4366,0.58394 0.413411,0 0.816485,-0.10852 0.408243,-0.11369 0.811318,-0.33589 v 0.87849 q -0.397907,0.18604 -0.82682,0.27906 -0.423746,0.093 -0.904335,0.093 -1.30741,0 -2.077386,-0.82165 -0.769976,-0.82165 -0.769976,-2.21691 0,-1.41593 0.775144,-2.22725 0.780311,-0.81132 2.134229,-0.81132 0.439249,0 0.857826,0.093 0.418578,0.0878 0.811318,0.26872 z"
         style="fill:#f9f9f9"
         id="path39628" />
      <path
         d="m 85.062765,142.63618 v 0.46509 h -4.371813 q 0.06201,0.98184 0.58911,1.49861 0.532265,0.51159 1.477941,0.51159 0.547769,0 1.059364,-0.13436 0.516762,-0.13435 1.02319,-0.40307 v 0.89917 q -0.511595,0.21704 -1.049029,0.33072 -0.537433,0.11369 -1.090369,0.11369 -1.384924,0 -2.196241,-0.80615 -0.80615,-0.80615 -0.80615,-2.18074 0,-1.42109 0.764809,-2.25308 0.769976,-0.83716 2.072218,-0.83716 1.167884,0 1.844843,0.75448 0.682127,0.7493 0.682127,2.04121 z m -0.950844,-0.27905 q -0.01033,-0.78031 -0.439248,-1.2454 -0.423745,-0.46509 -1.126543,-0.46509 -0.795814,0 -1.276403,0.44959 -0.475422,0.44958 -0.547769,1.26607 z"
         style="fill:#f9f9f9"
         id="path39630" />
      <path
         d="m 94.664216,139.98002 v 5.78774 h -0.956011 v -5.04877 h -2.609651 v 5.04877 h -0.956011 v -5.04877 H 89.23304 v -0.73897 h 0.909503 v -0.40308 q 0,-0.94567 0.444416,-1.39525 0.449583,-0.45476 1.374588,-0.45476 h 0.956011 v 0.79065 h -0.909502 q -0.511595,0 -0.713133,0.20671 -0.196369,0.2067 -0.196369,0.74413 v 0.5116 z m -0.956011,-2.24275 h 0.956011 v 1.20406 h -0.956011 z"
         style="fill:#f9f9f9"
         id="path39632" />
      <path
         d="m 96.653751,137.72693 h 0.950843 v 8.04083 h -0.950843 z"
         style="fill:#f9f9f9"
         id="path39634" />
      <path
         d="m 104.54472,142.63618 v 0.46509 h -4.37181 q 0.062,0.98184 0.5891,1.49861 0.53227,0.51159 1.47795,0.51159 0.54776,0 1.05936,-0.13436 0.51676,-0.13435 1.02319,-0.40307 v 0.89917 q -0.5116,0.21704 -1.04903,0.33072 -0.53743,0.11369 -1.09037,0.11369 -1.38492,0 -2.19624,-0.80615 -0.806149,-0.80615 -0.806149,-2.18074 0,-1.42109 0.764808,-2.25308 0.769981,-0.83716 2.072221,-0.83716 1.16788,0 1.84484,0.75448 0.68213,0.7493 0.68213,2.04121 z m -0.95085,-0.27905 q -0.0103,-0.78031 -0.43924,-1.2454 -0.42375,-0.46509 -1.12655,-0.46509 -0.79581,0 -1.2764,0.44959 -0.47542,0.44958 -0.54777,1.26607 z"
         style="fill:#f9f9f9"
         id="path39636" />
      <path
         d="m 109.79503,140.15055 v 0.89917 q -0.40308,-0.20671 -0.83716,-0.31006 -0.43408,-0.10335 -0.89916,-0.10335 -0.70797,0 -1.06454,0.21704 -0.35139,0.21704 -0.35139,0.65112 0,0.33073 0.25321,0.52193 0.25321,0.18603 1.01802,0.35657 l 0.32556,0.0723 q 1.01286,0.21704 1.4366,0.61495 0.42892,0.39274 0.42892,1.1007 0,0.80615 -0.64079,1.27641 -0.63562,0.47025 -1.75183,0.47025 -0.46508,0 -0.97151,-0.093 -0.50126,-0.0879 -1.05936,-0.26872 v -0.98185 q 0.52709,0.27388 1.03869,0.41341 0.51159,0.13436 1.01285,0.13436 0.6718,0 1.03353,-0.22738 0.36173,-0.23254 0.36173,-0.65112 0,-0.38757 -0.26355,-0.59428 -0.25838,-0.2067 -1.14204,-0.3979 l -0.33073,-0.0775 q -0.88366,-0.18603 -1.2764,-0.56844 -0.39274,-0.38757 -0.39274,-1.05936 0,-0.81648 0.57877,-1.2609 0.57878,-0.44442 1.64331,-0.44442 0.5271,0 0.99218,0.0775 0.46509,0.0775 0.85783,0.23254 z"
         style="fill:#f9f9f9"
         id="path39638" />
    </g>
    <circle
       style="fill:none;stroke:#b3b3b3;stroke-width:2.64583;stroke-linecap:round"
       id="path846-3"
       cx="201.71031"
       cy="140.82581"
       r="51.007732" />
    <g
       aria-label="bundled"
       transform="translate(2.3973311,-7.0170745)"
       id="text4106-6-7"
       style="font-size:10.5833px;line-height:1.25;white-space:pre;inline-size:81.8735;stroke-width:0.264583">
      <path
         d="m 182.95486,141.88258 q 0,-1.04903 -0.43408,-1.6433 -0.42892,-0.59945 -1.18339,-0.59945 -0.75447,0 -1.18855,0.59945 -0.42892,0.59427 -0.42892,1.6433 0,1.04903 0.42892,1.64848 0.43408,0.59427 1.18855,0.59427 0.75447,0 1.18339,-0.59427 0.43408,-0.59945 0.43408,-1.64848 z m -3.23494,-2.02054 q 0.29973,-0.51676 0.75448,-0.76481 0.45992,-0.25321 1.09553,-0.25321 1.0542,0 1.71049,0.83715 0.66145,0.83716 0.66145,2.20141 0,1.36426 -0.66145,2.20141 -0.65629,0.83716 -1.71049,0.83716 -0.63561,0 -1.09553,-0.24805 -0.45475,-0.25321 -0.75448,-0.76998 v 0.86817 h -0.95601 v -8.04083 h 0.95601 z"
         style="fill:#f9f9f9"
         id="path39724" />
      <path
         d="m 185.41982,142.48719 v -3.50365 h 0.95084 v 3.46748 q 0,0.82165 0.32039,1.23506 0.3204,0.40825 0.96118,0.40825 0.76998,0 1.21439,-0.49093 0.44959,-0.49092 0.44959,-1.33841 v -3.28145 h 0.95084 v 5.78775 h -0.95084 v -0.88884 q -0.34623,0.5271 -0.80615,0.78548 -0.45475,0.25322 -1.05937,0.25322 -0.99735,0 -1.51411,-0.62012 -0.51676,-0.62011 -0.51676,-1.81384 z m 2.39261,-3.64317 z"
         style="fill:#f9f9f9"
         id="path39726" />
      <path
         d="m 197.03664,141.27797 v 3.49332 h -0.95084 v -3.46231 q 0,-0.82166 -0.3204,-1.2299 -0.32039,-0.40824 -0.96117,-0.40824 -0.76998,0 -1.2144,0.49092 -0.44441,0.49093 -0.44441,1.33842 v 3.27111 h -0.95601 v -5.78775 h 0.95601 v 0.89917 q 0.34106,-0.52193 0.80098,-0.78031 0.46509,-0.25838 1.0697,-0.25838 0.99735,0 1.50895,0.62011 0.51159,0.61495 0.51159,1.81384 z"
         style="fill:#f9f9f9"
         id="path39728" />
      <path
         d="m 202.7417,139.86204 v -3.13158 h 0.95084 v 8.04083 h -0.95084 v -0.86817 q -0.29972,0.51677 -0.75964,0.76998 -0.45475,0.24805 -1.09554,0.24805 -1.04903,0 -1.71048,-0.83716 -0.65629,-0.83715 -0.65629,-2.20141 0,-1.36425 0.65629,-2.20141 0.66145,-0.83715 1.71048,-0.83715 0.64079,0 1.09554,0.25321 0.45992,0.24805 0.75964,0.76481 z m -3.2401,2.02054 q 0,1.04903 0.42891,1.64848 0.43408,0.59427 1.18856,0.59427 0.75447,0 1.18855,-0.59427 0.43408,-0.59945 0.43408,-1.64848 0,-1.04903 -0.43408,-1.6433 -0.43408,-0.59945 -1.18855,-0.59945 -0.75448,0 -1.18856,0.59945 -0.42891,0.59427 -0.42891,1.6433 z"
         style="fill:#f9f9f9"
         id="path39730" />
      <path
         d="m 205.65107,136.73046 h 0.95085 v 8.04083 h -0.95085 z"
         style="fill:#f9f9f9"
         id="path39732" />
      <path
         d="m 213.54204,141.6397 v 0.46509 h -4.37181 q 0.062,0.98185 0.58911,1.49861 0.53226,0.5116 1.47794,0.5116 0.54777,0 1.05936,-0.13436 0.51677,-0.13436 1.02319,-0.40308 v 0.89917 q -0.51159,0.21704 -1.04902,0.33073 -0.53744,0.11369 -1.09037,0.11369 -1.38493,0 -2.19625,-0.80615 -0.80615,-0.80615 -0.80615,-2.18074 0,-1.4211 0.76481,-2.25309 0.76998,-0.83715 2.07222,-0.83715 1.16789,0 1.84484,0.75447 0.68213,0.74931 0.68213,2.04121 z m -0.95084,-0.27905 q -0.0103,-0.78031 -0.43925,-1.2454 -0.42375,-0.46508 -1.12654,-0.46508 -0.79582,0 -1.27641,0.44958 -0.47542,0.44958 -0.54777,1.26607 z"
         style="fill:#f9f9f9"
         id="path39734" />
      <path
         d="m 218.91121,139.86204 v -3.13158 h 0.95084 v 8.04083 h -0.95084 v -0.86817 q -0.29973,0.51677 -0.75965,0.76998 -0.45475,0.24805 -1.09553,0.24805 -1.04903,0 -1.71049,-0.83716 -0.65629,-0.83715 -0.65629,-2.20141 0,-1.36425 0.65629,-2.20141 0.66146,-0.83715 1.71049,-0.83715 0.64078,0 1.09553,0.25321 0.45992,0.24805 0.75965,0.76481 z m -3.24011,2.02054 q 0,1.04903 0.42892,1.64848 0.43408,0.59427 1.18855,0.59427 0.75447,0 1.18855,-0.59427 0.43409,-0.59945 0.43409,-1.64848 0,-1.04903 -0.43409,-1.6433 -0.43408,-0.59945 -1.18855,-0.59945 -0.75447,0 -1.18855,0.59945 -0.42892,0.59427 -0.42892,1.6433 z"
         style="fill:#f9f9f9"
         id="path39736" />
    </g>
    <g
       aria-label="metadata files"
       transform="translate(-14.459468,7.0170798)"
       id="text4106-6"
       style="font-size:10.5833px;line-height:1.25;white-space:pre;inline-size:81.8735;stroke-width:0.264583">
      <path
         d="m 183.30626,140.09458 q 0.35656,-0.64078 0.85266,-0.94567 0.49609,-0.30489 1.16788,-0.30489 0.90433,0 1.39526,0.63562 0.49092,0.63045 0.49092,1.79833 v 3.49332 h -0.95601 v -3.46231 q 0,-0.83199 -0.29455,-1.23507 -0.29456,-0.40307 -0.89917,-0.40307 -0.73897,0 -1.16788,0.49092 -0.42892,0.49093 -0.42892,1.33842 v 3.27111 h -0.95601 v -3.46231 q 0,-0.83716 -0.29455,-1.23507 -0.29456,-0.40307 -0.9095,-0.40307 -0.72864,0 -1.15755,0.49609 -0.42892,0.49093 -0.42892,1.33325 v 3.27111 h -0.95601 v -5.78775 h 0.95601 v 0.89917 q 0.32556,-0.53226 0.78032,-0.78548 0.45475,-0.25321 1.08003,-0.25321 0.63045,0 1.0697,0.32039 0.44441,0.32039 0.65629,0.93017 z"
         style="fill:#f9f9f9"
         id="path39758" />
      <path
         d="m 194.06009,141.6397 v 0.46509 h -4.37181 q 0.062,0.98185 0.58911,1.49861 0.53226,0.5116 1.47794,0.5116 0.54777,0 1.05936,-0.13436 0.51676,-0.13436 1.02319,-0.40308 v 0.89917 q -0.51159,0.21704 -1.04903,0.33073 -0.53743,0.11369 -1.09037,0.11369 -1.38492,0 -2.19624,-0.80615 -0.80615,-0.80615 -0.80615,-2.18074 0,-1.4211 0.76481,-2.25309 0.76998,-0.83715 2.07222,-0.83715 1.16788,0 1.84484,0.75447 0.68213,0.74931 0.68213,2.04121 z m -0.95084,-0.27905 q -0.0103,-0.78031 -0.43925,-1.2454 -0.42375,-0.46508 -1.12655,-0.46508 -0.79581,0 -1.2764,0.44958 -0.47542,0.44958 -0.54777,1.26607 z"
         style="fill:#f9f9f9"
         id="path39760" />
      <path
         d="m 196.56122,137.34024 v 1.6433 h 1.95853 v 0.73897 h -1.95853 v 3.14192 q 0,0.70797 0.1912,0.9095 0.19637,0.20154 0.79065,0.20154 h 0.97668 v 0.79582 h -0.97668 q -1.10071,0 -1.51928,-0.40825 -0.41858,-0.41341 -0.41858,-1.49861 v -3.14192 h -0.69763 v -0.73897 h 0.69763 v -1.6433 z"
         style="fill:#f9f9f9"
         id="path39762" />
      <path
         d="m 202.40064,141.86191 q -1.15238,0 -1.5968,0.26355 -0.44441,0.26355 -0.44441,0.89917 0,0.50643 0.33072,0.80615 0.3359,0.29455 0.90951,0.29455 0.79064,0 1.26606,-0.5581 0.48059,-0.56327 0.48059,-1.49345 v -0.21187 z m 1.89652,-0.39274 v 3.30212 h -0.95085 v -0.8785 q -0.32556,0.5271 -0.81131,0.78031 -0.48576,0.24805 -1.18856,0.24805 -0.88883,0 -1.41593,-0.49609 -0.52193,-0.50126 -0.52193,-1.33842 0,-0.97668 0.65112,-1.47277 0.65629,-0.4961 1.95337,-0.4961 h 1.33324 v -0.093 q 0,-0.65629 -0.43408,-1.01286 -0.42891,-0.36173 -1.20922,-0.36173 -0.49609,0 -0.96635,0.11885 -0.47025,0.11886 -0.90433,0.35657 v -0.8785 q 0.52193,-0.20153 1.01285,-0.29972 0.49093,-0.10335 0.95601,-0.10335 1.25574,0 1.87585,0.65112 0.62012,0.65112 0.62012,1.97403 z"
         style="fill:#f9f9f9"
         id="path39764" />
      <path
         d="m 210.06423,139.86204 v -3.13158 h 0.95084 v 8.04083 h -0.95084 v -0.86817 q -0.29972,0.51677 -0.75964,0.76998 -0.45475,0.24805 -1.09554,0.24805 -1.04903,0 -1.71048,-0.83716 -0.65629,-0.83715 -0.65629,-2.20141 0,-1.36425 0.65629,-2.20141 0.66145,-0.83715 1.71048,-0.83715 0.64079,0 1.09554,0.25321 0.45992,0.24805 0.75964,0.76481 z m -3.2401,2.02054 q 0,1.04903 0.42891,1.64848 0.43408,0.59427 1.18855,0.59427 0.75448,0 1.18856,-0.59427 0.43408,-0.59945 0.43408,-1.64848 0,-1.04903 -0.43408,-1.6433 -0.43408,-0.59945 -1.18856,-0.59945 -0.75447,0 -1.18855,0.59945 -0.42891,0.59427 -0.42891,1.6433 z"
         style="fill:#f9f9f9"
         id="path39766" />
      <path
         d="m 215.60392,141.86191 q -1.15238,0 -1.59679,0.26355 -0.44442,0.26355 -0.44442,0.89917 0,0.50643 0.33073,0.80615 0.33589,0.29455 0.9095,0.29455 0.79065,0 1.26607,-0.5581 0.48059,-0.56327 0.48059,-1.49345 v -0.21187 z m 1.89652,-0.39274 v 3.30212 h -0.95084 v -0.8785 q -0.32556,0.5271 -0.81132,0.78031 -0.48575,0.24805 -1.18855,0.24805 -0.88883,0 -1.41593,-0.49609 -0.52193,-0.50126 -0.52193,-1.33842 0,-0.97668 0.65112,-1.47277 0.65629,-0.4961 1.95336,-0.4961 h 1.33325 v -0.093 q 0,-0.65629 -0.43408,-1.01286 -0.42891,-0.36173 -1.20923,-0.36173 -0.49609,0 -0.96634,0.11885 -0.47026,0.11886 -0.90434,0.35657 v -0.8785 q 0.52193,-0.20153 1.01286,-0.29972 0.49092,-0.10335 0.95601,-0.10335 1.25573,0 1.87585,0.65112 0.62011,0.65112 0.62011,1.97403 z"
         style="fill:#f9f9f9"
         id="path39768" />
      <path
         d="m 220.39948,137.34024 v 1.6433 h 1.95853 v 0.73897 h -1.95853 v 3.14192 q 0,0.70797 0.19121,0.9095 0.19637,0.20154 0.79064,0.20154 h 0.97668 v 0.79582 h -0.97668 q -1.1007,0 -1.51928,-0.40825 -0.41858,-0.41341 -0.41858,-1.49861 v -3.14192 h -0.69763 v -0.73897 h 0.69763 v -1.6433 z"
         style="fill:#f9f9f9"
         id="path39770" />
      <path
         d="m 226.2389,141.86191 q -1.15238,0 -1.5968,0.26355 -0.44441,0.26355 -0.44441,0.89917 0,0.50643 0.33072,0.80615 0.3359,0.29455 0.90951,0.29455 0.79064,0 1.26607,-0.5581 0.48058,-0.56327 0.48058,-1.49345 v -0.21187 z m 1.89652,-0.39274 v 3.30212 h -0.95085 v -0.8785 q -0.32556,0.5271 -0.81131,0.78031 -0.48576,0.24805 -1.18856,0.24805 -0.88883,0 -1.41593,-0.49609 -0.52193,-0.50126 -0.52193,-1.33842 0,-0.97668 0.65112,-1.47277 0.65629,-0.4961 1.95337,-0.4961 h 1.33324 v -0.093 q 0,-0.65629 -0.43408,-1.01286 -0.42891,-0.36173 -1.20922,-0.36173 -0.49609,0 -0.96635,0.11885 -0.47025,0.11886 -0.90433,0.35657 v -0.8785 q 0.52193,-0.20153 1.01285,-0.29972 0.49093,-0.10335 0.95601,-0.10335 1.25574,0 1.87585,0.65112 0.62012,0.65112 0.62012,1.97403 z"
         style="fill:#f9f9f9"
         id="path39772" />
      <path
         d="m 238.13478,138.98354 v 5.78775 h -0.95601 v -5.04878 h -2.60965 v 5.04878 h -0.95602 v -5.04878 h -0.9095 v -0.73897 h 0.9095 v -0.40307 q 0,-0.94568 0.44442,-1.39526 0.44958,-0.45475 1.37459,-0.45475 h 0.95601 v 0.79065 h -0.9095 q -0.5116,0 -0.71313,0.2067 -0.19637,0.20671 -0.19637,0.74414 v 0.51159 z m -0.95601,-2.24275 h 0.95601 v 1.20406 h -0.95601 z"
         style="fill:#f9f9f9"
         id="path39774" />
      <path
         d="m 240.12431,136.73046 h 0.95085 v 8.04083 h -0.95085 z"
         style="fill:#f9f9f9"
         id="path39776" />
      <path
         d="m 248.01528,141.6397 v 0.46509 h -4.37181 q 0.062,0.98185 0.58911,1.49861 0.53227,0.5116 1.47794,0.5116 0.54777,0 1.05937,-0.13436 0.51676,-0.13436 1.02319,-0.40308 v 0.89917 q -0.5116,0.21704 -1.04903,0.33073 -0.53744,0.11369 -1.09037,0.11369 -1.38493,0 -2.19624,-0.80615 -0.80615,-0.80615 -0.80615,-2.18074 0,-1.4211 0.76481,-2.25309 0.76997,-0.83715 2.07221,-0.83715 1.16789,0 1.84485,0.75447 0.68212,0.74931 0.68212,2.04121 z m -0.95084,-0.27905 q -0.0103,-0.78031 -0.43925,-1.2454 -0.42374,-0.46508 -1.12654,-0.46508 -0.79582,0 -1.2764,0.44958 -0.47543,0.44958 -0.54777,1.26607 z"
         style="fill:#f9f9f9"
         id="path39778" />
      <path
         d="m 253.26559,139.15408 v 0.89916 q -0.40308,-0.2067 -0.83716,-0.31005 -0.43408,-0.10336 -0.89916,-0.10336 -0.70797,0 -1.06453,0.21704 -0.3514,0.21704 -0.3514,0.65112 0,0.33073 0.25321,0.52193 0.25321,0.18604 1.01802,0.35657 l 0.32556,0.0724 q 1.01286,0.21704 1.4366,0.61494 0.42892,0.39274 0.42892,1.10071 0,0.80615 -0.64079,1.2764 -0.63562,0.47026 -1.75182,0.47026 -0.46509,0 -0.97152,-0.093 -0.50126,-0.0878 -1.05936,-0.26872 v -0.98185 q 0.5271,0.27389 1.03869,0.41341 0.5116,0.13436 1.01286,0.13436 0.67179,0 1.03352,-0.22737 0.36174,-0.23255 0.36174,-0.65112 0,-0.38758 -0.26355,-0.59428 -0.25838,-0.20671 -1.14205,-0.39791 l -0.33073,-0.0775 q -0.88366,-0.18604 -1.2764,-0.56844 -0.39274,-0.38757 -0.39274,-1.05937 0,-0.81648 0.57877,-1.2609 0.57878,-0.44441 1.64331,-0.44441 0.5271,0 0.99218,0.0775 0.46509,0.0775 0.85783,0.23255 z"
         style="fill:#f9f9f9"
         id="path39780" />
    </g>
    <text
       xml:space="preserve"
       transform="matrix(0.26458333,0,0,0.26458333,19.398803,8.0477439)"
       id="text38993"
       style="fill:black;fill-opacity:1;line-height:1.25;stroke:none;font-family:sans-serif;font-style:normal;font-weight:normal;font-size:40px;white-space:pre;shape-inside:url(#rect38995)" />
  </g>
</svg>
