<?xml version="1.0" encoding="UTF-8" standalone="no"?>
<!-- Created with Inkscape (http://www.inkscape.org/) -->

<svg
   width="128"
   height="128"
   viewBox="0 0 33.866666 33.866668"
   version="1.1"
   id="svg1160"
   xmlns="http://www.w3.org/2000/svg"
   xmlns:svg="http://www.w3.org/2000/svg">
  <defs
     id="defs1157" />
  <g
     id="layer1">
    <path
       d="m 16.931882,0.85518002 c -9.1019696,0 -16.48353008,7.38054708 -16.48353008,16.48555198 0,7.283396 4.72302488,13.461683 11.27373108,15.641542 0.824783,0.151801 1.125349,-0.357239 1.125349,-0.794425 0,-0.391645 -0.01419,-1.427936 -0.02227,-2.803251 C 8.2397779,30.380409 7.2723015,27.174379 7.2723015,27.174379 6.5224062,25.269787 5.441586,24.762772 5.441586,24.762772 3.9448303,23.740648 5.5549381,23.760887 5.5549381,23.760887 c 1.6546272,0.116388 2.5249509,1.699155 2.5249509,1.699155 1.4704417,2.51888 3.858773,1.791249 4.797913,1.369245 0.149773,-1.064631 0.575831,-1.791249 1.046414,-2.203136 -3.660422,-0.415933 -7.5090754,-1.830716 -7.5090754,-8.147648 0,-1.799344 0.6426233,-3.271809 1.6971326,-4.42347 C 7.942255,11.638087 7.3765452,9.9611942 8.274186,7.6922826 c 0,0 1.3834102,-0.4432588 4.53277,1.6900448 1.314594,-0.366344 2.725327,-0.5485047 4.126953,-0.5555904 1.400614,0.00718 2.810338,0.1892464 4.126956,0.5555904 3.147334,-2.1333036 4.52872,-1.6900448 4.52872,-1.6900448 0.899671,2.2689116 0.33396,3.9458044 0.164949,4.3627504 1.056534,1.151661 1.694096,2.624126 1.694096,4.42347 0,6.333125 -3.854723,7.726655 -7.526275,8.134491 0.591009,0.509041 1.118263,1.514973 1.118263,3.052207 0,2.204146 -0.02037,3.982238 -0.02037,4.522648 0,0.441234 0.297528,0.954322 1.133445,0.793412 6.545645,-2.184916 11.264622,-8.359158 11.264622,-15.640529 0,-9.1050049 -7.381562,-16.48555198 -16.486568,-16.48555198"
       style="fill:#404041;fill-opacity:1;fill-rule:evenodd;stroke:none;stroke-width:0.101201"
       id="path104" />
  </g>
</svg>
